<?xml version="1.0" encoding="UTF-8"?><svg id="b" xmlns="http://www.w3.org/2000/svg" width="599.24" height="750.79" viewBox="0 0 599.24 750.79"><g id="c"><path d="M161.55,375.93c0,63.58.01,127.16,0,190.74,0,18.13-2.1,35.83-10.71,52.22-15.66,29.83-45.42,45.62-79.49,42.12-31.12-3.2-56.75-25.53-66.47-57.55-4.12-13.57-4.78-27.5-4.79-41.46-.1-123.34-.1-246.69,0-370.03.01-16.98,1.1-33.83,6.64-50.18,11.03-32.58,36.82-51.62,71.19-52.38,25.13-.56,46.98,6.71,63.47,26.42,12.14,14.51,18.34,31.8,19.16,50.43,1.15,26.25,1.19,52.57,1.3,78.85.19,43.61.05,87.22.05,130.82-.11,0-.22,0-.33,0Z" style="fill:#00b262; stroke-width:0px;"/><path d="M437.58,374.56c0-45.44-.09-90.87.04-136.31.06-22.13-.03-44.28.96-66.38,1.26-28.16,10.63-52.89,34.98-69.42,46.91-31.84,109.46-7.19,121.51,48.12,2.8,12.87,3.75,26.35,3.87,39.57.44,48.26.16,96.53.19,144.79.04,71.24.16,142.47.11,213.71-.01,17.27.3,34.57-3.92,51.59-17.16,69.18-92.87,74.53-127.86,42.66-20.09-18.29-28.9-41.65-29.05-68.14-.38-66.73-.13-133.46-.13-200.2-.23,0-.46,0-.69,0Z" style="fill:#00b262; stroke-width:0px;"/><path d="M379.72,343.97h-159.81c-.09-1.79-.24-3.4-.25-5.01-.19-36.62-.37-73.24-.53-109.86-.12-27.13-.52-54.27-.23-81.39.31-28.61,1.15-57.22,2.03-85.82.76-24.88,12.62-43.06,35.49-52.58,29.24-12.17,59.04-13.17,87.82,1.55,23.03,11.77,34.78,31.54,35,57.36.59,70.57.81,141.14,1.07,211.72.07,19.64-.19,39.28-.32,58.92-.01,1.63-.16,3.25-.26,5.11Z" style="fill:#00b262; stroke-width:0px;"/><path d="M219.76,406.78h159.5c.07,1.52.2,3.1.21,4.67.18,29.62.38,59.24.5,88.86.15,36.61.51,73.22.25,109.82-.19,26.77-.98,53.55-1.99,80.31-.83,21.87-10.89,38.84-30.56,48.56-29.63,14.66-60.3,16.01-90.47,1.91-23.92-11.17-36.67-30.9-36.98-57.49-.72-61.22-1.1-122.45-1.35-183.68-.12-29.45.38-58.9.61-88.35.01-1.46.17-2.91.27-4.63Z" style="fill:#00b262; stroke-width:0px;"/></g></svg>