<?xml version="1.0" encoding="UTF-8"?><svg id="b" xmlns="http://www.w3.org/2000/svg" width="517.94" height="187.99" viewBox="0 0 517.94 187.99"><g id="c"><path d="M39.96,94.12c0,15.73,0,31.46,0,47.19,0,4.48-.52,8.87-2.65,12.92-3.87,7.38-11.24,11.29-19.67,10.42-7.7-.79-14.04-6.32-16.44-14.24-1.02-3.36-1.18-6.8-1.19-10.26-.02-30.51-.02-61.03,0-91.54,0-4.2.27-8.37,1.64-12.41,2.73-8.06,9.11-12.77,17.61-12.96,6.22-.14,11.62,1.66,15.7,6.54,3,3.59,4.54,7.87,4.74,12.48.28,6.49.3,13,.32,19.51.05,10.79.01,21.58.01,32.36-.03,0-.06,0-.08,0Z" style="fill:#00b262; stroke-width:0px;"/><path d="M108.25,93.79c0-11.24-.02-22.48,0-33.72.02-5.47,0-10.95.24-16.42.31-6.97,2.63-13.08,8.65-17.17,11.6-7.88,27.08-1.78,30.06,11.9.69,3.18.93,6.52.96,9.79.11,11.94.04,23.88.05,35.82,0,17.62.04,35.25.03,52.87,0,4.27.07,8.55-.97,12.76-4.24,17.12-22.97,18.44-31.63,10.55-4.97-4.53-7.15-10.3-7.19-16.86-.09-16.51-.03-33.02-.03-49.53-.06,0-.11,0-.17,0Z" style="fill:#00b262; stroke-width:0px;"/><path d="M93.94,86.22h-39.54c-.02-.44-.06-.84-.06-1.24-.05-9.06-.09-18.12-.13-27.18-.03-6.71-.13-13.42-.06-20.14.08-7.08.28-14.16.5-21.23.19-6.16,3.12-10.65,8.78-13.01,7.23-3.01,14.61-3.26,21.73.38,5.7,2.91,8.6,7.8,8.66,14.19.15,17.46.2,34.92.26,52.38.02,4.86-.05,9.72-.08,14.58,0,.4-.04.81-.06,1.26Z" style="fill:#00b262; stroke-width:0px;"/><path d="M54.37,101.76h39.46c.02.38.05.77.05,1.16.04,7.33.09,14.65.12,21.98.04,9.06.13,18.11.06,27.17-.05,6.62-.24,13.25-.49,19.87-.21,5.41-2.69,9.61-7.56,12.01-7.33,3.63-14.92,3.96-22.38.47-5.92-2.76-9.07-7.64-9.15-14.22-.18-15.15-.27-30.29-.33-45.44-.03-7.29.09-14.57.15-21.86,0-.36.04-.72.07-1.14Z" style="fill:#00b262; stroke-width:0px;"/><path d="M221.22,26.47c.4-.4.89-.6,1.47-.6h20.18c.57,0,1.06.2,1.47.6.4.4.6.89.6,1.47v116.59c0,.58-.2,1.06-.6,1.47-.4.4-.89.6-1.47.6h-20.18c-.58,0-1.06-.2-1.47-.6-.4-.4-.6-.89-.6-1.47v-47.08c0-.57-.29-.86-.86-.86h-17.25c-.58,0-.86.29-.86.86v47.08c0,.58-.2,1.06-.6,1.47-.4.4-.89.6-1.47.6h-20.18c-.58,0-1.06-.2-1.47-.6-.4-.4-.6-.89-.6-1.47V27.94c0-.57.2-1.06.6-1.47s.89-.6,1.47-.6h20.18c.57,0,1.06.2,1.47.6.4.4.6.89.6,1.47v46.91c0,.58.29.86.86.86h17.25c.57,0,.86-.29.86-.86V27.94c0-.57.2-1.06.6-1.47Z" style="fill:#00b262; stroke-width:0px;"/><path d="M261.57,44.06c-2.59-2.59-3.88-5.83-3.88-9.74s1.26-7.3,3.79-9.83c2.53-2.53,5.8-3.79,9.83-3.79s7.27,1.27,9.74,3.79c2.47,2.53,3.71,5.81,3.71,9.83s-1.27,7.16-3.79,9.74c-2.53,2.59-5.75,3.88-9.66,3.88s-7.16-1.29-9.74-3.88ZM260.02,145.99c-.4-.4-.6-.89-.6-1.47V60.02c0-.57.2-1.06.6-1.47.4-.4.89-.6,1.47-.6h20.18c.57,0,1.06.2,1.47.6.4.4.6.89.6,1.47v84.51c0,.58-.2,1.06-.6,1.47-.4.4-.89.6-1.47.6h-20.18c-.58,0-1.06-.2-1.47-.6Z" style="fill:#00b262; stroke-width:0px;"/><path d="M293.13,145.99c-.29-.4-.26-1.01.09-1.81l19.66-41.39c.11-.34.11-.69,0-1.03l-19.66-41.39c-.23-.46-.34-.8-.34-1.03,0-.92.63-1.38,1.9-1.38h22.08c1.15,0,1.95.52,2.41,1.55l8.45,19.49c.34.69.69.69,1.04,0l8.45-19.49c.46-1.03,1.26-1.55,2.42-1.55h21.9c.8,0,1.35.2,1.64.6.29.4.26,1.01-.09,1.81l-19.66,41.39c-.12.35-.12.69,0,1.03l19.66,41.39c.23.46.34.81.34,1.03,0,.92-.63,1.38-1.9,1.38h-21.9c-1.27,0-2.07-.52-2.42-1.55l-8.45-20.18c-.35-.92-.69-.92-1.04,0l-8.45,20.18c-.34,1.03-1.15,1.55-2.41,1.55h-22.08c-.81,0-1.35-.2-1.64-.6Z" style="fill:#00b262; stroke-width:0px;"/><path d="M431.28,64.07c4.08,5,6.12,12.16,6.12,21.47v33.46c0,9.08-2.01,16.18-6.04,21.3-4.03,5.12-10,7.67-17.94,7.67-6.44,0-11.61-2.18-15.52-6.55-.23-.23-.46-.32-.69-.26-.23.06-.34.26-.34.6v2.76c0,.58-.2,1.06-.6,1.47-.4.4-.89.6-1.47.6h-20.18c-.58,0-1.06-.2-1.47-.6-.4-.4-.6-.89-.6-1.47V27.94c0-.57.2-1.06.6-1.47s.89-.6,1.47-.6h20.18c.57,0,1.06.2,1.47.6.4.4.6.89.6,1.47v35.01c0,.23.11.35.34.35.46,0,.92-.29,1.38-.86,3.91-3.91,8.85-5.86,14.83-5.86,7.82,0,13.77,2.5,17.85,7.5ZM410.84,80.19c-1.5-1.84-3.45-2.76-5.86-2.76-2.07,0-3.85.69-5.35,2.07-1.5,1.38-2.42,3.22-2.76,5.52v34.49c.34,2.3,1.26,4.14,2.76,5.52,1.49,1.38,3.28,2.07,5.35,2.07,2.42,0,4.37-.92,5.86-2.76,1.49-1.84,2.24-4.2,2.24-7.07v-30.01c0-2.87-.75-5.23-2.24-7.07Z" style="fill:#00b262; stroke-width:0px;"/><path d="M512.68,109.25c-.4.4-.89.6-1.47.6h-37.94c-.58,0-.86.29-.86.86v6.38c0,2.88.78,5.26,2.33,7.16,1.55,1.9,3.54,2.85,5.95,2.85,2.18,0,3.97-.72,5.35-2.16,1.38-1.44,2.3-3.25,2.76-5.43.34-1.15,1.09-1.72,2.24-1.72l19.83,1.04c.57,0,1.06.2,1.47.6.4.4.54.95.43,1.64-.81,8.85-3.88,15.55-9.23,20.09-5.35,4.54-12.96,6.81-22.85,6.81s-18.22-2.56-23.97-7.67c-5.75-5.11-8.62-12.22-8.62-21.3v-33.46c0-8.74,2.9-15.75,8.71-21.04,5.8-5.29,13.77-7.93,23.89-7.93s18.08,2.65,23.89,7.93c5.8,5.29,8.71,12.3,8.71,21.04v22.25c0,.58-.2,1.06-.6,1.47ZM474.74,80.19c-1.55,1.84-2.33,4.2-2.33,7.07v6.73c0,.58.29.86.86.86h14.83c.57,0,.86-.29.86-.86v-6.73c0-2.87-.78-5.23-2.33-7.07-1.55-1.84-3.54-2.76-5.95-2.76s-4.4.92-5.95,2.76Z" style="fill:#00b262; stroke-width:0px;"/></g></svg>